<svg width="108" height="48" viewBox="0 0 108 48" fill="none" xmlns="http://www.w3.org/2000/svg">
<path d="M8 24.0295C8 22.9249 8.89543 22.0295 10 22.0295H94C95.1046 22.0295 96 22.9249 96 24.0295C96 25.1341 95.1046 26.0295 94 26.0295H10C8.89543 26.0295 8 25.1341 8 24.0295Z" fill="white"/>
<path d="M81.4142 39.5562C80.6332 38.7752 80.6332 37.5089 81.4142 36.7278L95.5564 22.5857C96.3374 21.8046 97.6037 21.8046 98.3848 22.5857C99.1658 23.3667 99.1658 24.6331 98.3848 25.4141L84.2426 39.5562C83.4616 40.3373 82.1953 40.3373 81.4142 39.5562Z" fill="white"/>
<path d="M81.4142 8.4437C82.1952 7.66265 83.4615 7.66265 84.2426 8.4437L98.3848 22.5857C99.1658 23.3667 99.1658 24.6331 98.3848 25.4141C97.6037 26.1952 96.3373 26.1953 95.5563 25.4143L81.4142 11.2721C80.6331 10.4911 80.6331 9.22475 81.4142 8.4437Z" fill="white"/>
</svg>
