<svg width="32" height="60" viewBox="0 0 32 60" fill="none" xmlns="http://www.w3.org/2000/svg">
<path d="M16.0293 60C14.9344 60 14.0469 59.1188 14.0469 58.0318L14.0469 4.89143C14.0469 3.80445 14.9344 2.92327 16.0293 2.92327C17.1241 2.92327 18.0116 3.80445 18.0116 4.89143L18.0117 58.0318C18.0117 59.1188 17.1241 60 16.0293 60Z" fill="#F29CEF"/>
<path d="M31.4194 17.2769C30.6452 18.0455 29.39 18.0455 28.6158 17.2769L14.5982 3.35986C13.824 2.59124 13.824 1.34508 14.5982 0.576461C15.3723 -0.192155 16.6275 -0.192155 17.4017 0.576461L31.4194 14.4935C32.1935 15.2621 32.1935 16.5083 31.4194 17.2769Z" fill="#F29CEF"/>
<path d="M0.580629 17.2769C-0.193546 16.5083 -0.193546 15.2621 0.580629 14.4935L14.5982 0.576461C15.3723 -0.192155 16.6275 -0.192155 17.4017 0.576461C18.1759 1.34508 18.176 2.5913 17.4018 3.35992L3.38416 17.2769C2.60999 18.0455 1.3548 18.0455 0.580629 17.2769Z" fill="#F29CEF"/>
</svg>
