<svg width="70" height="100" viewBox="0 0 70 100" fill="none" xmlns="http://www.w3.org/2000/svg">
<path d="M26.8907 0H16.3544V13.4764H26.8913V8.98446H20.7607V4.49223H26.8907V0Z" fill="white"/>
<path d="M39.5349 0H28.9983L28.998 8.78868H35.1289V9.56988H28.9985V13.6719H39.5349V4.68746H33.4046V3.90627H39.5349V0Z" fill="white"/>
<path d="M52.179 0H41.6427V8.78868H47.7727V9.56988H41.6424V13.6719H52.179V4.68746H46.0487V3.90627H52.179V0Z" fill="white"/>
<path fill-rule="evenodd" clip-rule="evenodd" d="M34.7033 100L6.32427 91.9681L0 19.6525H69.4915L63.1607 91.957L34.7033 100ZM15.2777 61.2553L14.4981 52.386L46.1827 52.3861L46.9742 43.3039L13.7221 43.3038L12.9313 34.4346L56.5082 34.4346L54.9378 52.3861L54.7256 54.7677L52.5502 79.6161L34.7458 84.6466V84.6481L34.7057 84.6592L16.8852 79.616L15.6665 65.69H24.3995L25.019 72.7635L34.7076 75.4307L34.7155 75.4286L44.4183 72.758L45.4284 61.2553L15.2777 61.2553Z" fill="white"/>
</svg>
