<svg width="100" height="100" viewBox="0 0 100 100" fill="none" xmlns="http://www.w3.org/2000/svg">
<path fill-rule="evenodd" clip-rule="evenodd" d="M98.7952 0H0V100H98.7952V0ZM33.5371 78.936L25.9769 83.5672C28.1655 88.2661 32.4762 92.1586 39.9032 92.1586C48.1271 92.1586 53.7638 87.7282 53.7638 77.995V45.9098H44.4798V77.8622C44.4798 82.5606 42.556 83.7684 39.5053 83.7684C36.3226 83.7684 34.9958 81.5536 33.5371 78.936ZM66.366 78.1301L58.8066 82.5602C61.5254 87.9977 67.0958 92.1598 75.7168 92.1598C84.537 92.1598 91.1022 87.5286 91.1022 79.07C91.1022 71.2169 86.6592 67.7266 78.7671 64.3028L76.4462 63.2961C72.4674 61.5508 70.7431 60.409 70.7431 57.5899C70.7431 55.3079 72.4674 53.5625 75.1866 53.5625C77.8394 53.5625 79.5629 54.7036 81.1548 57.5899L88.3838 52.8907C85.3335 47.4536 81.0892 45.3723 75.187 45.3723C66.897 45.3723 61.5918 50.7426 61.5918 57.7911C61.5918 65.4434 66.0349 69.0684 72.7333 71.9539L75.0538 72.9618C79.2981 74.8407 81.8182 75.9821 81.8182 79.2039C81.8182 81.8891 79.3653 83.836 75.5181 83.836C70.9426 83.836 68.3562 81.4196 66.366 78.1301Z" fill="white"/>
</svg>
