<svg width="100" height="100" viewBox="0 0 100 100" fill="none" xmlns="http://www.w3.org/2000/svg">
<path d="M66.4769 40.0083H83.8952V43.175H76.9856V59.8348H73.5305V43.175H66.4769V40.0083Z" fill="white"/>
<path d="M37.8306 40.0083V43.175H23.8686V48.2693H35.0968V51.4361H23.8686V56.6681H37.8306V59.8348H20.4138V43.175H20.4124V40.0083H37.8306Z" fill="white"/>
<path d="M46.5279 40.0165H42.0066L58.201 59.843H62.7355L54.6373 49.9365L62.7226 40.0316L58.201 40.0385L52.3736 47.1674L46.5279 40.0165Z" fill="white"/>
<path d="M51.1675 54.1787L48.9033 51.4058L41.9937 59.8582H46.5279L51.1675 54.1787Z" fill="white"/>
<path fill-rule="evenodd" clip-rule="evenodd" d="M20.5348 59.8347L4.31855 40H0V59.8265H3.45485V44.2379L16.1946 59.8347H20.5348Z" fill="white"/>
<path d="M84.6717 59.7137C84.4187 59.7137 84.2035 59.6274 84.0233 59.4547C83.8431 59.2821 83.754 59.073 83.7563 58.8254C83.754 58.5845 83.8431 58.3777 84.0233 58.2051C84.2035 58.0324 84.4187 57.946 84.6717 57.946C84.9152 57.946 85.1281 58.0324 85.3083 58.2051C85.491 58.3777 85.5822 58.5845 85.5847 58.8254C85.5822 58.9889 85.54 59.1389 85.4558 59.2729C85.3692 59.4093 85.2593 59.5161 85.121 59.5933C84.9852 59.6729 84.8355 59.7137 84.6717 59.7137Z" fill="white"/>
<path d="M90.5685 51.3613H92.0994V57.1712C92.0972 57.7051 91.9799 58.1618 91.7507 58.5458C91.519 58.9298 91.1982 59.2229 90.7862 59.4296C90.3766 59.6341 89.8967 59.7387 89.3512 59.7387C88.8525 59.7387 88.4055 59.65 88.0076 59.4774C87.6096 59.3047 87.2936 59.0457 87.0619 58.7048C86.8276 58.364 86.7129 57.9391 86.7129 57.4302H88.2464C88.2487 57.6529 88.3002 57.846 88.3984 58.0073C88.4967 58.1686 88.6324 58.2913 88.8058 58.3776C88.9812 58.464 89.1827 58.5072 89.4096 58.5072C89.6555 58.5072 89.8662 58.4572 90.037 58.3549C90.2078 58.2549 90.339 58.105 90.4304 57.905C90.5192 57.7074 90.5662 57.462 90.5685 57.1712V51.3613Z" fill="white"/>
<path d="M98.3988 53.6334C98.3615 53.2813 98.1975 53.0064 97.912 52.811C97.6239 52.6133 97.2518 52.5156 96.7952 52.5156C96.4747 52.5156 96.1985 52.5633 95.9691 52.6565C95.7397 52.7519 95.5617 52.8791 95.4399 53.0404C95.3183 53.2018 95.2574 53.3858 95.2526 53.5926C95.2526 53.7652 95.2947 53.9152 95.3767 54.0402C95.4587 54.1674 95.5686 54.2742 95.7115 54.3605C95.8518 54.4491 96.0087 54.5218 96.1798 54.5809C96.3528 54.64 96.5262 54.69 96.6993 54.7309L97.4975 54.924C97.8183 54.9967 98.1298 55.0945 98.427 55.2194C98.7242 55.3421 98.9935 55.4989 99.2298 55.6875C99.4663 55.8761 99.6536 56.1033 99.7917 56.3691C99.9297 56.6349 100 56.9462 100 57.3052C100 57.7892 99.8737 58.214 99.6183 58.5821C99.3633 58.9479 98.9957 59.2342 98.5135 59.441C98.0336 59.6455 97.4531 59.75 96.7696 59.75C96.1094 59.75 95.5336 59.6501 95.049 59.4501C94.5622 59.2524 94.1828 58.9616 93.9089 58.5798C93.6351 58.1981 93.4876 57.7323 93.4666 57.1848H94.9836C95.0046 57.471 95.0983 57.7097 95.2574 57.9028C95.4188 58.0936 95.6295 58.2345 95.8871 58.3299C96.147 58.4231 96.4371 58.4708 96.7579 58.4708C97.0927 58.4708 97.3876 58.4208 97.6427 58.3231C97.8955 58.2254 98.0945 58.0891 98.2374 57.9119C98.3825 57.7369 98.4551 57.5301 98.4574 57.2938C98.4551 57.078 98.3894 56.8985 98.263 56.7576C98.1343 56.6168 97.9564 56.4986 97.7292 56.4032C97.5001 56.3078 97.233 56.2214 96.9287 56.1464L95.9597 55.9056C95.2597 55.7306 94.7049 55.4648 94.2998 55.1081C93.8927 54.7514 93.6912 54.2788 93.6912 53.6857C93.6912 53.1995 93.827 52.7723 94.1011 52.4065C94.3724 52.0407 94.7447 51.7567 95.2153 51.5545C95.6881 51.35 96.2219 51.25 96.8163 51.25C97.4204 51.25 97.9493 51.35 98.4059 51.5545C98.8622 51.7567 99.2206 52.0384 99.4803 52.3974C99.7402 52.7564 99.8759 53.1677 99.8831 53.6334H98.3988Z" fill="white"/>
</svg>
