<svg width="100" height="90" viewBox="0 0 100 90" fill="none" xmlns="http://www.w3.org/2000/svg">
<path d="M76.5051 55.6099C76.0197 55.7706 75.5213 55.9258 75.0135 56.0763C73.8895 52.5195 72.3723 48.7372 70.5164 44.83C72.2878 41.0151 73.746 37.2815 74.8386 33.7476C75.7469 34.0108 76.6289 34.2878 77.4787 34.5805C85.697 37.4081 90.7098 41.5895 90.7098 44.8111C90.7098 48.243 85.2953 52.6983 76.5051 55.6099Z" fill="white"/>
<path d="M72.8577 62.8347C73.7464 67.3222 73.8734 71.3795 73.2846 74.5512C72.7556 77.4012 71.692 79.3012 70.3769 80.0622C67.5781 81.6816 61.5926 79.5766 55.1382 74.0244C54.3981 73.3879 53.6525 72.7082 52.9049 71.9892C55.4074 69.2532 57.9083 66.0724 60.349 62.5404C64.6425 62.1597 68.6986 61.537 72.3771 60.6872C72.5579 61.4179 72.719 62.1341 72.8577 62.8347Z" fill="white"/>
<path d="M35.9714 79.7825C33.2371 80.7478 31.0593 80.7753 29.743 80.0166C26.9414 78.4019 25.7773 72.1668 27.3655 63.8043C27.5544 62.816 27.7706 61.8332 28.014 60.8569C31.6516 61.6611 35.6782 62.2398 39.9819 62.5887C42.4388 66.0449 45.012 69.2218 47.6053 72.0038C47.0541 72.5367 46.4899 73.056 45.9132 73.5611C42.4675 76.5722 39.0143 78.7079 35.9714 79.7825Z" fill="white"/>
<path d="M23.1612 55.5887C18.8308 54.1091 15.2545 52.1864 12.8032 50.0884C10.6006 48.2025 9.48832 46.3304 9.48832 44.8111C9.48832 41.5789 14.3097 37.4556 22.3508 34.6532C23.3601 34.3029 24.3794 33.9824 25.4074 33.6918C26.5189 37.3051 27.9767 41.0831 29.7359 44.9035C27.9539 48.7808 26.4753 52.6189 25.3536 56.2747C24.6173 56.064 23.8863 55.8353 23.1612 55.5887Z" fill="white"/>
<path d="M27.4555 26.37C25.7863 17.8433 26.8947 11.4114 29.684 9.79742C32.6554 8.07816 39.225 10.5297 46.1494 16.6756C46.592 17.0685 47.0365 17.4799 47.4818 17.9053C44.902 20.6748 42.3523 23.8277 39.9167 27.2638C35.7399 27.6508 31.7416 28.2723 28.0659 29.1049C27.8395 28.1984 27.636 27.2867 27.4555 26.37Z" fill="white"/>
<path d="M65.7635 35.8255C64.8953 34.3265 63.9949 32.8462 63.0629 31.3859C65.8967 31.7435 68.6114 32.2189 71.1606 32.8007C70.3954 35.2527 69.4415 37.8167 68.3182 40.445C67.4975 38.8884 66.6457 37.3482 65.7635 35.8255Z" fill="white"/>
<path d="M50.1415 20.6154C51.8913 22.5103 53.6438 24.6264 55.3677 26.922C51.8709 26.7568 48.3682 26.756 44.8713 26.9197C46.5967 24.6453 48.3642 22.5323 50.1415 20.6154Z" fill="white"/>
<path d="M34.4193 35.8515C33.5481 37.362 32.7123 38.8927 31.9125 40.4423C30.8077 37.8229 29.8625 35.2476 29.0905 32.7606C31.6244 32.1937 34.3266 31.7305 37.1419 31.3789C36.1995 32.8482 35.2917 34.3395 34.4193 35.8515Z" fill="white"/>
<path d="M37.2228 58.5141C34.3144 58.1896 31.5714 57.75 29.0383 57.1987C29.8224 54.6678 30.7885 52.0371 31.9169 49.3615C32.72 50.9122 33.5595 52.4439 34.4346 53.9551C35.3277 55.4967 36.2573 57.0168 37.2228 58.5141Z" fill="white"/>
<path d="M50.2464 69.2748C48.4483 67.3351 46.6549 65.19 44.9031 62.8826C46.6034 62.9494 48.3371 62.9832 50.0991 62.9832C51.9094 62.9832 53.6989 62.9427 55.46 62.8641C53.7307 65.2136 51.9844 67.3618 50.2464 69.2748Z" fill="white"/>
<path d="M68.3543 49.2252C69.5413 51.9298 70.542 54.5464 71.3367 57.0345C68.7615 57.6219 65.9816 58.0949 63.0523 58.4462C63.991 56.9586 64.9 55.4525 65.7788 53.9288C66.6721 52.3802 67.5308 50.812 68.3543 49.2252Z" fill="white"/>
<path fill-rule="evenodd" clip-rule="evenodd" d="M62.4922 52.0343C61.147 54.3704 59.726 56.6621 58.2317 58.9058C55.5968 59.094 52.8739 59.1911 50.0991 59.1911C47.3356 59.1911 44.6473 59.105 42.0583 58.9373C40.5253 56.6987 39.0775 54.4031 37.7181 52.0551C36.365 49.7197 35.1011 47.3337 33.9292 44.9023C35.0981 42.4702 36.3582 40.0829 37.7067 37.7455C39.0547 35.4076 40.4911 33.1226 42.0128 30.8937C44.6539 30.6941 47.362 30.5896 50.0994 30.5896C52.8491 30.5896 55.5607 30.6949 58.2011 30.896C59.7073 33.1215 61.1345 35.3994 62.48 37.7255C63.8332 40.0577 65.11 42.4333 66.3086 44.8485C65.1224 47.2883 63.8492 49.6851 62.4922 52.0343ZM58.0295 44.8113C58.0295 40.4334 54.4792 36.884 50.0992 36.884C45.7196 36.884 42.1689 40.4334 42.1689 44.8113C42.1689 49.1896 45.7196 52.7389 50.0992 52.7389C54.4792 52.7389 58.0295 49.1896 58.0295 44.8113Z" fill="white"/>
<path d="M70.3187 9.68466C73.2924 11.3992 74.4491 18.3128 72.5807 27.3793C72.4582 27.97 72.3251 28.5583 72.1813 29.1442C68.497 28.2943 64.4959 27.6618 60.307 27.2689C57.8666 23.7954 55.3382 20.6371 52.8 17.9034C53.4651 17.2624 54.1461 16.6381 54.8422 16.0309C61.3988 10.327 67.5266 8.07502 70.3187 9.68466Z" fill="white"/>
<path fill-rule="evenodd" clip-rule="evenodd" d="M19.0005 63.344C7.37452 59.3716 0 52.3244 0 44.7752C0 37.431 7.76677 30.9072 19.0005 26.9921C16.6714 15.0928 18.4931 5.50447 24.8776 1.81019C31.499 -2.02122 40.6273 0.558065 50.1466 9.00664C59.2965 1.04681 68.5159 -2.16383 74.9063 1.51984C81.5348 5.34064 83.711 14.529 81.1426 27.075C92.6121 31.0219 100 37.4011 100 44.7752C100 52.4238 93.2264 58.433 81.117 62.4349C83.5027 74.4831 81.5152 84.5385 74.979 88.3208C68.6197 92.0006 59.5063 88.9479 50.4889 81.1908C41.2381 89.2743 31.4916 91.8851 24.9495 88.1134C18.5847 84.4442 16.6789 75.0272 19.0005 63.344ZM75.8549 30.0937C76.8153 30.3699 77.7686 30.6701 78.7139 30.9942C88.3055 34.2948 94.5037 39.4652 94.5037 44.8111C94.5037 50.3865 87.8799 55.8378 77.6986 59.2095C77.1606 59.3879 76.6091 59.5592 76.0471 59.725C76.2476 60.5312 76.4264 61.3228 76.5797 62.098C78.5897 72.2465 77.0419 80.5878 72.2783 83.3443C67.666 86.0131 60.2117 83.3914 52.6638 76.8991C51.8434 76.1917 51.0429 75.4615 50.2631 74.7095C49.6441 75.3079 49.0259 75.8787 48.41 76.417C40.6176 83.2256 32.6154 86.0505 27.8475 83.3023C23.2313 80.6405 21.7806 72.8759 23.6381 63.0971C23.841 62.0343 24.0737 60.9775 24.3357 59.9277C23.5291 59.6975 22.7284 59.4473 21.9343 59.1773C12.1406 55.8315 5.69479 50.3131 5.69479 44.8111C5.69479 39.4844 11.6996 34.3487 21.1018 31.072C22.1528 30.7059 23.2513 30.3617 24.3888 30.0387C24.1451 29.0643 23.9262 28.0839 23.7324 27.0984C21.7841 17.1467 23.155 9.19355 27.7834 6.51526C32.6103 3.72226 40.6491 6.72153 48.669 13.8398C49.1678 14.2835 49.6584 14.7365 50.1405 15.1984C50.8604 14.5037 51.5977 13.8273 52.3517 13.1699C60.0041 6.5133 67.5811 3.72855 72.2138 6.39936C77.0458 9.18412 78.4607 17.6437 76.2967 28.1446C76.1615 28.797 76.0142 29.4468 75.8549 30.0937Z" fill="white"/>
</svg>
