<svg width="100" height="100" viewBox="0 0 100 100" fill="none" xmlns="http://www.w3.org/2000/svg">
<path d="M86.1078 55.2804C82.6191 55.2985 79.5871 56.1322 77.0482 57.3648C76.1167 55.5341 75.1851 53.9028 75.0207 52.7066C74.8381 51.3109 74.6189 50.459 74.8381 48.7915C75.0573 47.124 76.0436 44.7496 76.0253 44.5683C76.0071 44.3871 75.8061 43.5352 73.797 43.5171C71.7878 43.4989 70.0526 43.8977 69.8516 44.4233C69.6507 44.949 69.2671 46.1452 69.0114 47.3777C68.6644 49.1903 64.993 55.661 62.8925 59.0504C62.2167 57.7273 61.6322 56.5672 61.5043 55.6429C61.3217 54.2472 61.1025 53.3953 61.3217 51.7278C61.5409 50.0603 62.5272 47.6859 62.5089 47.5046C62.4907 47.3234 62.2898 46.4715 60.2806 46.4534C58.2714 46.4352 56.5362 46.834 56.3352 47.3596C56.1343 47.8853 55.9151 49.1178 55.495 50.314C55.0749 51.5103 50.1981 62.3129 48.9195 65.1042C48.2619 66.5361 47.6957 67.678 47.2939 68.4574C47.2939 68.4574 47.2756 68.5118 47.2208 68.6024C46.8738 69.273 46.6729 69.6355 46.6729 69.6355C46.6729 69.6355 46.6729 69.6355 46.6729 69.6537C46.3989 70.143 46.1066 70.5962 45.9605 70.5962C45.8509 70.5962 45.65 69.2912 45.997 67.5149C46.7276 63.763 48.4629 57.9266 48.4446 57.7273C48.4446 57.6185 48.7734 56.6035 47.3121 56.0779C45.8874 55.5522 45.376 56.4222 45.2482 56.4222C45.1203 56.4222 45.029 56.7304 45.029 56.7304C45.029 56.7304 46.6181 50.169 41.9969 50.169C39.111 50.169 35.1291 53.3047 33.1565 56.1322C31.9144 56.8029 29.2659 58.2348 26.4348 59.7754C25.3571 60.3735 24.243 60.9717 23.2018 61.5336C23.1288 61.4611 23.0557 61.3704 22.9826 61.2979C17.3934 55.371 7.05523 51.184 7.4936 43.2271C7.65799 40.327 8.66258 32.7144 27.3481 23.4706C42.7275 15.9486 54.9653 18.033 57.0841 22.6549C60.1162 29.2525 50.5269 41.5052 34.636 43.2814C28.5719 43.9521 25.3937 41.632 24.59 40.762C23.7498 39.8558 23.6219 39.8014 23.3114 39.9826C22.8 40.2545 23.1288 41.0702 23.3114 41.5414C23.7863 42.7739 25.7407 44.949 29.0468 46.0184C31.9692 46.9609 39.0745 47.4865 47.6774 44.1877C57.3033 40.4902 64.8286 30.2131 62.6185 21.6037C60.4084 12.8673 45.7961 9.98537 31.9692 14.8611C23.7498 17.7611 14.8363 22.3287 8.42513 28.2737C0.808465 35.3426 -0.397049 41.487 0.096116 44.0608C1.86786 53.1959 14.5623 59.141 19.6401 63.5455C19.3844 63.6905 19.1469 63.8173 18.946 63.9261C16.4071 65.1767 6.72645 70.1974 4.31542 75.5081C1.57561 81.5257 4.75379 85.8395 6.85431 86.4195C13.3751 88.2139 20.0784 84.9876 23.6767 79.6588C27.275 74.33 26.8366 67.4061 25.1745 64.2342C25.1562 64.198 25.138 64.1617 25.1014 64.1255C25.759 63.7448 26.4348 63.3461 27.0924 62.9655C28.3892 62.2042 29.6678 61.4973 30.7637 60.9173C30.1427 62.603 29.686 64.6148 29.4669 67.5149C29.1929 70.9224 30.5993 75.345 32.4441 77.085C33.2661 77.8463 34.2341 77.8644 34.8551 77.8644C37.0105 77.8644 37.9785 76.0881 39.0562 73.9856C40.3713 71.4118 41.5585 68.4212 41.5585 68.4212C41.5585 68.4212 40.079 76.505 44.0974 76.505C45.5587 76.505 47.0382 74.62 47.6957 73.6593C47.6957 73.6775 47.6957 73.6775 47.6957 73.6775C47.6957 73.6775 47.7322 73.6231 47.8053 73.4962C47.9514 73.2606 48.0428 73.1156 48.0428 73.1156C48.0428 73.1156 48.0428 73.0975 48.0428 73.0793C48.6273 72.0643 49.9424 69.7624 51.8968 65.938C54.4174 61.0079 56.8467 54.8453 56.8467 54.8453C56.8467 54.8453 57.0659 56.3497 57.8147 58.851C58.2531 60.3192 59.1664 61.9323 59.897 63.4911C59.3125 64.3067 58.9472 64.7598 58.9472 64.7598C58.9472 64.7598 58.9472 64.7599 58.9655 64.778C58.4906 65.3942 57.9791 66.0649 57.4129 66.7174C55.422 69.0737 53.0475 71.7743 52.7187 72.5537C52.3351 73.4781 52.4265 74.1487 53.1571 74.6925C53.6868 75.0912 54.6366 75.1456 55.6046 75.0912C57.3946 74.9644 58.6549 74.5294 59.276 74.2575C60.244 73.9131 61.3765 73.3875 62.4359 72.6081C64.3903 71.1762 65.5775 69.128 65.4679 66.4274C65.4131 64.9411 64.92 63.4548 64.3172 62.0592C64.4999 61.8054 64.6643 61.5517 64.8469 61.2979C67.9338 56.821 70.3265 51.9091 70.3265 51.9091C70.3265 51.9091 70.5457 53.4135 71.2946 55.9147C71.6599 57.1835 72.4088 58.561 73.0663 59.9023C70.1621 62.2404 68.3721 64.9592 67.7328 66.7355C66.5821 70.0343 67.4771 71.5206 69.1758 71.8649C69.943 72.0281 71.0389 71.6656 71.8426 71.3212C72.8654 70.9949 74.0709 70.4331 75.2216 69.5993C77.176 68.1674 79.0574 66.1736 78.9478 63.473C78.893 62.2404 78.5642 61.0261 78.1076 59.8479C80.5734 58.8329 83.7516 58.271 87.8065 58.7423C96.5008 59.7573 98.2178 65.1405 97.889 67.4061C97.5602 69.6718 95.7337 70.9043 95.1309 71.2849C94.5282 71.6656 94.3273 71.7924 94.382 72.0643C94.4551 72.4631 94.7474 72.445 95.2588 72.3725C95.9711 72.2456 99.8251 70.5418 99.9895 66.373C100.264 61.0442 95.1492 55.226 86.1078 55.2804ZM19.0373 77.7194C16.1514 80.8369 12.133 82.0151 10.3978 81.0182C8.53473 79.9488 9.26534 75.345 12.8088 72.0462C14.9641 70.0343 17.7405 68.1674 19.5853 67.0255C20.0054 66.7718 20.6264 66.4092 21.3753 65.9561C21.5032 65.8836 21.5762 65.8474 21.5762 65.8474C21.7223 65.7567 21.8685 65.6661 22.0146 65.5755C23.3114 70.288 22.0694 74.4387 19.0373 77.7194ZM40.0425 63.5455C39.0379 65.9742 36.9374 72.1912 35.6588 71.8468C34.5629 71.5568 33.8871 66.8443 35.4396 62.1861C36.2251 59.8479 37.8872 57.0566 38.8553 55.9691C40.4261 54.2291 42.1613 53.6491 42.5814 54.356C43.1111 55.2803 40.6635 62.0229 40.0425 63.5455ZM57.3764 71.7743C56.9563 71.9918 56.5544 72.1368 56.3718 72.0281C56.2439 71.9556 56.5544 71.6656 56.5544 71.6656C56.5544 71.6656 58.728 69.3455 59.5865 68.2943C60.0796 67.678 60.6641 66.953 61.2852 66.1374C61.2852 66.2099 61.2852 66.3005 61.2852 66.373C61.2852 69.1462 58.5819 71.0131 57.3764 71.7743ZM70.7466 68.7474C70.4361 68.5299 70.4909 67.8049 71.532 65.5392C71.9339 64.6511 72.8837 63.1648 74.5093 61.7329C74.692 62.3129 74.8198 62.8748 74.8016 63.4005C74.7833 66.8986 72.2627 68.2036 70.7466 68.7474Z" fill="white"/>
</svg>
