<svg width="100" height="100" viewBox="0 0 100 100" fill="none" xmlns="http://www.w3.org/2000/svg">
<path fill-rule="evenodd" clip-rule="evenodd" d="M1 0V100H99.5915V0H1ZM22.6162 54.2501V50.1751L22.6901 50.2001V46.1001L39.9437 46.0251C49.4331 46.0251 57.2465 46.0501 57.2465 46.1251C57.3451 46.1751 57.3451 48.0001 57.3451 50.2501V54.2501H44.5282V91.2502H35.4331V54.2501H22.6162ZM86.3804 49.5751C84.655 47.7501 82.7325 46.6001 80.2184 46.0001L80.2677 45.9501C78.567 45.5001 74.5001 45.3501 72.7747 45.7001C67.4508 46.7001 63.7289 50.2001 62.669 55.2001C62.324 56.6251 62.4472 60.1751 62.8169 61.6251C63.3099 63.3001 64.3698 65.3251 65.5282 66.6251C67.5493 68.7751 69.7184 70.1751 74.8205 72.3751C79.2571 74.3751 80.8346 75.2751 81.6233 76.3752C82.1902 77.2502 82.3628 77.7752 82.3628 78.9252C82.3628 80.1752 81.9684 81.0752 81.0564 81.9252C78.9367 83.8752 74.6479 84.1002 71.4437 82.4252C70.3839 81.8252 68.5599 80.0752 67.7465 78.7752L67.1057 77.9002L64.3205 79.5502L60.6233 81.7252L59.6866 82.3252C59.5881 82.5002 61.3381 85.1752 62.25 86.1752C64.5669 88.7502 68.3381 90.7502 72.2818 91.5002C74.1303 91.8252 78.074 91.8752 79.7994 91.5752C85.2959 90.6502 89.1409 87.8252 90.7184 83.6502C92.1233 79.8252 91.655 74.7251 89.5599 71.4751C87.7113 68.5751 84.655 66.5501 77.6057 63.4751C73.7853 61.7751 72.5529 60.9501 71.8874 59.5751C71.5916 58.9251 71.4437 58.4751 71.4437 57.6751C71.4437 55.0501 73.4156 53.4751 76.3733 53.6751C78.4191 53.8251 79.7254 54.6251 81.0071 56.4751C81.4015 57.1251 81.7959 57.5501 81.8944 57.4751C84.4825 55.8501 88.7466 52.9251 88.7466 52.7751C88.648 52.3251 87.2923 50.5751 86.3804 49.5751Z" fill="white"/>
</svg>
