<svg width="29" height="14" viewBox="0 0 29 14" fill="none" xmlns="http://www.w3.org/2000/svg">
<path fill-rule="evenodd" clip-rule="evenodd" d="M20.3027 0.292893C20.6932 -0.0976311 21.3263 -0.0976311 21.7169 0.292893L27.7092 6.28517C27.9084 6.48445 28.006 6.74691 28.0019 7.00807C27.9999 7.2613 27.9023 7.5139 27.7091 7.70711L21.7168 13.6994C21.3263 14.0899 20.6931 14.0899 20.3026 13.6994C19.912 13.3089 19.912 12.6757 20.3026 12.2852L24.5974 7.99033H1C0.447715 7.99033 0 7.54261 0 6.99033C0 6.43804 0.447715 5.99033 1 5.99033H24.5859L20.3027 1.70711C19.9121 1.31658 19.9121 0.683417 20.3027 0.292893Z" fill="#1F1C1F"/>
</svg>
