<svg width="100" height="100" viewBox="0 0 100 100" fill="none" xmlns="http://www.w3.org/2000/svg">
<path d="M25.1308 0H20.6107V13.485H25.1311V8.96946H29.2662V13.485H33.7866V0H29.2659V4.45307H25.1308V0Z" fill="white"/>
<path d="M35.7518 4.47196H39.7307L39.7315 13.485H44.2519V4.47196H48.2333V0H35.7518V4.47196Z" fill="white"/>
<path d="M54.9274 0H50.2141V13.485H54.637V6.80111L57.7488 11.5958H57.8268L60.9367 6.80111V13.485H65.4387V0H60.7234L57.8268 4.73828L54.9274 0Z" fill="white"/>
<path d="M72.21 0H67.6883L67.688 13.485H78.5669V9.02778H72.21V0Z" fill="white"/>
<path fill-rule="evenodd" clip-rule="evenodd" d="M85.0526 19.6525L78.5796 91.957L49.4829 100L20.4663 91.9681L14 19.6525H85.0526ZM37.7557 52.386L36.9427 43.3038L70.981 43.3038L71.7773 34.4345L27.2216 34.4346L29.6208 61.2552L60.4486 61.2552L59.4159 72.7579L49.4951 75.4278L49.4872 75.4306L39.5808 72.7635L38.9475 65.69H30.0182L31.2643 79.616L49.4852 84.6592L49.5262 84.6481V84.6464L67.7304 79.6159L69.9547 54.7676L70.1716 52.386L37.7557 52.386Z" fill="white"/>
</svg>
