<svg width="100" height="100" viewBox="0 0 100 100" fill="none" xmlns="http://www.w3.org/2000/svg">
<path d="M69.2894 68.4046C72.9797 68.0249 75.7793 64.8627 75.6519 61.0676C75.525 57.2729 72.3433 54.2369 68.5258 54.2369H68.2715C64.3262 54.3635 61.2723 57.6522 61.3996 61.5735C61.5269 63.4711 62.2902 65.1154 63.4355 66.2539C59.109 74.7294 52.4918 80.9275 42.566 86.1138C35.8215 89.6558 28.8226 90.9208 21.8238 90.0355C16.0973 89.2764 11.6434 86.7467 8.84335 82.5719C4.77148 76.3737 4.38984 69.6692 7.82578 62.9651C10.2437 58.1582 14.0609 54.6162 16.4789 52.8453C15.9699 51.2009 15.2062 48.4181 14.8246 46.3943C-3.62735 59.6764 -1.71836 77.6388 3.88085 86.1138C8.08007 92.439 16.6062 96.3603 26.023 96.3603C28.568 96.3603 31.1129 96.1071 33.6582 95.475C49.9469 92.3124 62.2906 82.6985 69.2894 68.4046ZM91.6863 52.7191C82.0148 41.4608 67.7625 35.2626 51.4738 35.2626H49.4379C48.2926 32.9857 45.8746 31.4675 43.2023 31.4675H42.9476C39.0031 31.5941 35.9492 34.8829 36.0762 38.8045C36.2035 42.5992 39.3848 45.6352 43.2023 45.6352H43.4566C46.2562 45.5087 48.6742 43.7377 49.6922 41.3342H51.9828C61.6543 41.3342 70.8164 44.1171 79.0883 49.5565C85.4508 53.731 90.032 59.1704 92.5769 65.748C94.7402 71.0609 94.6129 76.2472 92.3222 80.6748C88.7594 87.3789 82.7785 91.0474 74.8887 91.0474C69.7984 91.0474 64.9629 89.5292 62.4176 88.3907C61.018 89.6558 58.4726 91.6795 56.691 92.9449C62.1633 95.4746 67.7625 96.8662 73.107 96.8662C85.3234 96.8662 94.3586 90.1617 97.7945 83.4576C101.485 76.1206 101.23 63.4711 91.6863 52.7191ZM27.041 70.5545C27.1683 74.3496 30.3496 77.3852 34.1672 77.3852H34.4219C38.3668 77.259 41.4207 73.9699 41.2933 70.0486C41.1664 66.2535 37.9848 63.2179 34.1672 63.2179H33.9129C33.6582 63.2179 33.2762 63.2179 33.0223 63.3441C27.8047 54.7424 25.6414 45.3821 26.4051 35.2622C26.9137 27.6724 29.459 21.0945 33.9129 15.6551C37.6031 10.9747 44.7293 8.69779 49.5652 8.5716C63.0539 8.31843 68.7801 25.0158 69.1621 31.7203C70.8164 32.0997 73.616 32.9853 75.525 33.6179C73.9976 13.1258 61.2723 2.5 49.0562 2.5C37.6031 2.5 27.041 10.7223 22.8414 22.8659C16.9879 39.0573 20.8055 54.6162 27.9316 66.8864C27.2957 67.7717 26.9137 69.1633 27.041 70.5549V70.5545Z" fill="white"/>
</svg>
