<svg width="100" height="100" viewBox="0 0 100 100" fill="none" xmlns="http://www.w3.org/2000/svg">
<path d="M50 20C36.6663 20 28.3331 26.6668 24.9994 39.9992C30 33.3324 35.8334 30.8332 42.4997 32.4993C46.3036 33.4499 49.0221 36.2105 52.032 39.2649C56.9339 44.2407 62.6072 49.9994 75.0006 49.9994C88.3331 49.9994 96.6675 43.3326 100 29.999C95.0006 36.6658 89.1672 39.1661 82.4997 37.5C78.697 36.5494 75.9785 33.7889 72.9686 30.7344C68.0668 25.7587 62.3921 20 50 20ZM24.9994 49.9994C11.6669 49.9994 3.3325 56.6662 0 69.9998C4.99937 63.333 10.8328 60.8326 17.5003 62.4999C21.303 63.4518 24.0215 66.2111 27.0314 69.2643C31.9332 74.24 37.6079 80 50 80C63.3338 80 71.6669 73.3332 75.0006 59.9996C70 66.6664 64.1666 69.1668 57.5003 67.4994C53.6964 66.5501 50.9779 63.7883 47.968 60.7351C43.0662 55.7593 37.3928 49.9994 24.9994 49.9994Z" fill="white"/>
</svg>
